<svg width="13" height="14" viewBox="0 0 13 14" fill="none" xmlns="http://www.w3.org/2000/svg">
<path d="M12.555 3.51354C12.5534 3.51056 12.5521 3.50753 12.5505 3.50458C12.5498 3.50333 12.5489 3.5022 12.5481 3.50095C12.4608 3.35115 12.3352 3.22736 12.1841 3.14234L6.81894 0.124429C6.67275 0.0428346 6.50812 0 6.3407 0C6.17328 0 6.00864 0.0428346 5.86245 0.124429L0.497207 3.14237C0.345545 3.22779 0.219511 3.35225 0.132192 3.50282C0.131254 3.50446 0.130123 3.50595 0.1292 3.50762C0.127711 3.51027 0.126639 3.51303 0.12521 3.51571C0.0432864 3.6613 0.000169482 3.82551 0 3.99256V10.0066C0.000134549 10.1797 0.0462482 10.3496 0.133622 10.499C0.220996 10.6484 0.346492 10.7719 0.497268 10.8568L5.86251 13.8748C5.99766 13.9503 6.14887 13.9926 6.3036 13.998C6.31469 13.9989 6.32574 13.9999 6.33704 14H6.34144C6.3568 14 6.37196 13.9991 6.38696 13.9977C6.53855 13.991 6.68647 13.9488 6.81889 13.8747L12.1841 10.8568C12.3349 10.7719 12.4604 10.6484 12.5477 10.499C12.6351 10.3496 12.6812 10.1797 12.6813 10.0066V3.99256C12.6812 3.82467 12.6377 3.65966 12.555 3.51354ZM6.34067 0.974647L11.2025 3.70943L9.3356 4.77002L4.41651 2.05698L6.34067 0.974647ZM6.39616 6.43997L1.48633 3.70523L3.41656 2.61947L8.34064 5.33529L6.39616 6.43997ZM6.83584 12.746L6.88381 7.28486L8.84172 6.17252V8.49395C8.84172 8.62331 8.89311 8.74737 8.98458 8.83884C9.07605 8.93031 9.20011 8.98169 9.32947 8.98169C9.45882 8.98169 9.58288 8.93031 9.67435 8.83884C9.76582 8.74737 9.81721 8.62331 9.81721 8.49395V5.61834L11.7058 4.54538V10.0066L6.83584 12.746Z" fill="white"/>
</svg>
