<svg width="11" height="11" viewBox="0 0 11 11" fill="none" xmlns="http://www.w3.org/2000/svg">
<path d="M5.5 0C4.4122 0 3.34884 0.322569 2.44437 0.926917C1.5399 1.53126 0.834947 2.39025 0.418665 3.39524C0.00238306 4.40023 -0.106535 5.5061 0.105683 6.573C0.317902 7.63989 0.841726 8.6199 1.61091 9.38909C2.3801 10.1583 3.36011 10.6821 4.427 10.8943C5.4939 11.1065 6.59977 10.9976 7.60476 10.5813C8.60975 10.1651 9.46874 9.4601 10.0731 8.55563C10.6774 7.65116 11 6.5878 11 5.5C10.9984 4.04182 10.4184 2.64383 9.38727 1.61274C8.35617 0.581643 6.95819 0.00165041 5.5 0ZM6.13462 8.03846H5.92308V8.46154C5.92308 8.57374 5.8785 8.68136 5.79916 8.7607C5.71982 8.84004 5.61221 8.88461 5.5 8.88461C5.38779 8.88461 5.28018 8.84004 5.20084 8.7607C5.1215 8.68136 5.07692 8.57374 5.07692 8.46154V8.03846H4.23077C4.11856 8.03846 4.01095 7.99389 3.93161 7.91454C3.85227 7.8352 3.80769 7.72759 3.80769 7.61538C3.80769 7.50318 3.85227 7.39556 3.93161 7.31622C4.01095 7.23688 4.11856 7.19231 4.23077 7.19231H6.13462C6.30293 7.19231 6.46434 7.12544 6.58336 7.00643C6.70237 6.88742 6.76923 6.726 6.76923 6.55769C6.76923 6.38938 6.70237 6.22796 6.58336 6.10895C6.46434 5.98994 6.30293 5.92308 6.13462 5.92308H4.86539C4.47266 5.92308 4.09602 5.76707 3.81832 5.48937C3.54063 5.21167 3.38462 4.83503 3.38462 4.44231C3.38462 4.04958 3.54063 3.67294 3.81832 3.39525C4.09602 3.11755 4.47266 2.96154 4.86539 2.96154H5.07692V2.53846C5.07692 2.42625 5.1215 2.31864 5.20084 2.2393C5.28018 2.15996 5.38779 2.11538 5.5 2.11538C5.61221 2.11538 5.71982 2.15996 5.79916 2.2393C5.8785 2.31864 5.92308 2.42625 5.92308 2.53846V2.96154H6.76923C6.88144 2.96154 6.98905 3.00611 7.06839 3.08545C7.14774 3.1648 7.19231 3.27241 7.19231 3.38461C7.19231 3.49682 7.14774 3.60443 7.06839 3.68378C6.98905 3.76312 6.88144 3.80769 6.76923 3.80769H4.86539C4.69708 3.80769 4.53566 3.87455 4.41665 3.99357C4.29763 4.11258 4.23077 4.274 4.23077 4.44231C4.23077 4.61062 4.29763 4.77203 4.41665 4.89105C4.53566 5.01006 4.69708 5.07692 4.86539 5.07692H6.13462C6.52734 5.07692 6.90398 5.23293 7.18168 5.51063C7.45938 5.78833 7.61539 6.16497 7.61539 6.55769C7.61539 6.95042 7.45938 7.32705 7.18168 7.60475C6.90398 7.88245 6.52734 8.03846 6.13462 8.03846Z" fill="white"/>
</svg>
