<svg width="21" height="14" viewBox="0 0 21 14" fill="none" xmlns="http://www.w3.org/2000/svg">
<path d="M15.6677 4.90132L15.3723 6.86689L14.2959 7.57204L15.9619 12.2155H20.9433C21.0629 11.8366 21.0103 11.3892 20.6204 10.8963C19.5213 9.49443 17.5335 6.0418 17.2273 4.90012L15.6677 4.90132Z" fill="white"/>
<path d="M5.54948 4.25373V2.84701H0.837206V3.509C0.837206 3.70778 0.915959 3.89843 1.05614 4.03899C1.19633 4.17956 1.38646 4.25852 1.58471 4.25852L5.54948 4.25373Z" fill="white"/>
<path d="M11.3501 5.30787L11.0559 4.74182H10.0022L10.1434 4.99846H10.5835V5.67124L10.312 6.34402H9.81685V6.60066H10.4519L11.3501 5.30787Z" fill="white"/>
<path d="M16.8733 0.203873V0.489295H17.9401V0.203873C17.9401 0.149803 17.9187 0.0979468 17.8806 0.0597134C17.8425 0.0214801 17.7907 0 17.7368 0H17.0766C17.0227 0 16.971 0.0214801 16.9329 0.0597134C16.8947 0.0979468 16.8733 0.149803 16.8733 0.203873Z" fill="white"/>
<path d="M15.3556 13.7026C15.3556 13.7815 15.3868 13.8571 15.4424 13.9129C15.4981 13.9687 15.5735 14 15.6522 14H19.1613C19.2399 14 19.3154 13.9687 19.371 13.9129C19.4266 13.8571 19.4579 13.7815 19.4579 13.7026H15.3556Z" fill="white"/>
<path d="M0 2.48964H19.6349V1.40072C19.6349 1.23024 19.5673 1.06674 19.4471 0.946192C19.3269 0.825645 19.1638 0.757924 18.9938 0.757924H17.134V2.11547H16.6843V0.757924H15.8053V2.11547H15.3556V0.757924H14.4944V2.11547H14.0459V0.757924H13.3283V2.11547H12.881V0.757924H0.641059C0.471039 0.757924 0.307982 0.825645 0.18776 0.946192C0.0675374 1.06674 0 1.23024 0 1.40072V2.48964Z" fill="white"/>
<path d="M7.74893 5.43859C7.74893 5.2204 7.83538 5.01114 7.98924 4.85686C8.14311 4.70258 8.3518 4.6159 8.5694 4.6159H11.0559C11.2735 4.6159 11.4822 4.70258 11.6361 4.85686C11.7899 5.01114 11.8764 5.2204 11.8764 5.43859V5.91828C11.8764 6.13647 11.7899 6.34572 11.6361 6.5C11.4822 6.65429 11.2735 6.74097 11.0559 6.74097H8.5694C8.3518 6.74097 8.14311 6.65429 7.98924 6.5C7.83538 6.34572 7.74893 6.13647 7.74893 5.91828V5.43859ZM17.189 4.58832C17.3577 4.02587 18.9304 3.1804 18.9304 3.1804L18.9866 2.84342H5.79226V4.36286H6.69047C6.69047 4.36286 7.3076 4.58832 7.3076 5.15076V6.39079L6.8591 6.78414V7.23385H11.2939L12.3895 6.89687C12.5607 6.94533 12.716 7.03864 12.8394 7.16721C12.9628 7.29577 13.0498 7.45495 13.0915 7.6284C13.2589 8.24722 15.1128 13.5395 15.1128 13.5395H19.6576C19.6576 13.5395 20.4517 13.1509 20.8141 12.4985H15.7586L13.9502 7.46171L15.114 6.70379L15.4213 4.6207H17.1842C17.1849 4.60978 17.1865 4.59894 17.189 4.58832ZM14.1201 6.21929C14.1198 6.13148 14.1456 6.04558 14.1941 5.97245C14.2426 5.89932 14.3116 5.84226 14.3924 5.80849C14.4733 5.77472 14.5623 5.76577 14.6482 5.78275C14.7341 5.79974 14.8131 5.8419 14.8751 5.90391C14.9371 5.96592 14.9794 6.04498 14.9965 6.13109C15.0137 6.21719 15.005 6.30647 14.9715 6.38762C14.9381 6.46877 14.8814 6.53814 14.8086 6.58695C14.7358 6.63576 14.6502 6.66181 14.5626 6.66181C14.4454 6.66181 14.3331 6.61523 14.2501 6.53228C14.1672 6.44932 14.1204 6.33676 14.1201 6.21929Z" fill="white"/>
<path d="M1.5907 0.244651L1.2905 0.617615L1.85023 0.648796L1.87176 0.260242L1.5907 0.244651Z" fill="white"/>
<path d="M14.4717 5.96266C14.4136 5.98469 14.365 6.02647 14.3345 6.08071C14.3039 6.13496 14.2933 6.19824 14.3044 6.25953C14.3156 6.32083 14.3479 6.37625 14.3956 6.41616C14.4433 6.45606 14.5035 6.47792 14.5656 6.47792C14.6278 6.47792 14.6879 6.45606 14.7357 6.41616C14.7834 6.37625 14.8156 6.32083 14.8268 6.25953C14.838 6.19824 14.8273 6.13496 14.7968 6.08071C14.7662 6.02647 14.7176 5.98469 14.6595 5.96266V6.21329C14.661 6.22655 14.6597 6.23997 14.6557 6.25268C14.6516 6.26539 14.6449 6.27711 14.6361 6.28705C14.6272 6.297 14.6164 6.30496 14.6042 6.31041C14.5921 6.31586 14.5789 6.31868 14.5656 6.31868C14.5523 6.31868 14.5392 6.31586 14.527 6.31041C14.5149 6.30496 14.504 6.297 14.4952 6.28705C14.4863 6.27711 14.4796 6.26539 14.4756 6.25268C14.4715 6.23997 14.4702 6.22655 14.4717 6.21329V5.96266Z" fill="white"/>
</svg>
