<svg width="34" height="14" viewBox="0 0 34 14" fill="none" xmlns="http://www.w3.org/2000/svg">
<path d="M19.0529 0.662075C19.1244 0.677492 19.1878 0.718836 19.2307 0.778147C19.2736 0.837459 19.293 0.910547 19.2853 0.983338C19.2775 1.05613 19.2431 1.12348 19.1887 1.17242C19.1342 1.22137 19.0636 1.24845 18.9904 1.24845C18.9172 1.24845 18.8466 1.22137 18.7922 1.17242C18.7377 1.12348 18.7033 1.05613 18.6956 0.983338C18.6878 0.910547 18.7073 0.837459 18.7502 0.778147C18.7931 0.718836 18.8564 0.677492 18.928 0.662075V1.04185C18.9278 1.05007 18.9293 1.05824 18.9324 1.06587C18.9354 1.0735 18.94 1.08045 18.9457 1.08631C18.9515 1.09217 18.9584 1.09682 18.966 1.1C18.9735 1.10318 18.9817 1.10481 18.9899 1.10481C19.0066 1.10481 19.0226 1.09818 19.0344 1.08637C19.0462 1.07456 19.0529 1.05855 19.0529 1.04185V0.662075Z" fill="white"/>
<path d="M11.8879 4.338H12.422V5.29963H11.8879V4.338Z" fill="white"/>
<path d="M20.7984 7.63212C20.7984 8.68311 20.116 8.94103 20.0947 8.9522C20.379 8.40589 20.0947 7.63212 20.0947 7.63212H20.7984Z" fill="white"/>
<path d="M18.9848 3.35505V2.64423H16.6351V3.35505C16.6351 3.4599 16.6767 3.56048 16.7507 3.63472C16.8248 3.70896 16.9252 3.7508 17.0301 3.75107H18.5949C18.6989 3.74947 18.798 3.70704 18.871 3.63294C18.944 3.55885 18.9848 3.45903 18.9848 3.35505ZM15.1038 5.56669V4.07195H8.83847V5.56669H15.1038ZM25.8615 3.32357V6.24298H25.3273V5.21332H17.9217V5.92413H9.02125C8.23834 5.92413 8.31044 5.21332 8.31044 5.21332V3.32357H15.1139V2.3985H21.4118L21.9449 3.21695H23.6894V2.3985H25.0775C25.9325 2.3985 25.8615 3.32357 25.8615 3.32357Z" fill="white"/>
<path d="M11.0339 4.338H11.568V5.29963H11.0339V4.338Z" fill="white"/>
<path d="M11.0623 6.02162H11.5386V6.72025H11.0623V6.02162Z" fill="white"/>
<path d="M23.5544 2.51324V3.08595H22.6994C22.6994 2.55284 23.1269 2.51324 23.1269 2.51324H23.5544Z" fill="white"/>
<path d="M13.5969 4.338H14.131V5.29963H13.5969V4.338Z" fill="white"/>
<path d="M24.8998 10.0479C23.9392 11.3964 22.3693 11.9772 22.3693 11.9772L22.7044 10.91L21.1092 7.4209H18.3136V6.4481H23.4528C23.4815 6.4454 23.5082 6.4321 23.5276 6.41078C23.547 6.38947 23.5578 6.36168 23.5578 6.33285C23.5578 6.30403 23.547 6.27623 23.5276 6.25492C23.5082 6.2336 23.4815 6.22029 23.4528 6.2176H18.3177V6.02568H23.6691C23.6998 6.02568 23.7293 6.01348 23.751 5.99177C23.7727 5.97006 23.7849 5.94062 23.7849 5.90991C23.7849 5.87921 23.7727 5.84977 23.751 5.82806C23.7293 5.80635 23.6998 5.79415 23.6691 5.79415H18.3177V5.51389H24.8998V6.37397H24.2591C23.6183 6.37397 23.1319 6.85225 23.1319 6.85225V7.46152C23.1319 8.05658 24.8998 10.0479 24.8998 10.0479Z" fill="white"/>
<path d="M9.28934 1.91818V3.19765H8.84356V2.3985L9.09336 1.91818H9.28934Z" fill="white"/>
<path d="M17.1824 1.55567H16.56V0.355413H17.1824V1.55567Z" fill="white"/>
<path d="M16.0593 8.71967C15.8633 9.38389 15.6335 10.0377 15.3708 10.6785C15.112 11.3195 14.7941 11.9352 14.4214 12.5174C14.2348 12.8071 14.022 13.079 13.7857 13.3298L13.7522 13.3623L13.276 12.9906C15.1454 11.5436 16.04 6.09676 16.04 6.09676H17.6475L17.2992 6.41662C16.961 11.6086 14.5757 14 14.5757 14L13.8649 13.4456L13.8873 13.4232C14.1299 13.1681 14.3488 12.8914 14.5412 12.5966C14.9181 12.0064 15.2396 11.3826 15.5018 10.7333C15.7665 10.0881 15.9983 9.42994 16.1964 8.7613C16.3995 8.09212 16.5701 7.41786 16.7102 6.7304L16.5701 6.70298C16.432 7.38231 16.2573 8.05658 16.0593 8.71967Z" fill="white"/>
<path d="M20.7984 0.355413H21.4209V1.55567H20.7984V0.355413Z" fill="white"/>
<path d="M21.5082 0.125921H22.3693V1.78414H21.5082V0.125921Z" fill="white"/>
<path d="M33.979 9.23348L29.7059 5.29963H26.1113V3.75107H33.3027C33.3027 3.75107 33.979 3.76224 33.979 4.46798V9.23348ZM33.195 7.59657V4.85486C33.1976 4.80208 33.1896 4.74932 33.1713 4.69973C33.153 4.65014 33.1249 4.60474 33.0887 4.56625C33.0525 4.52777 33.0089 4.49698 32.9605 4.47573C32.9121 4.45448 32.86 4.44321 32.8071 4.44259H31.1976V5.75354L33.195 7.59657Z" fill="white"/>
<path d="M20.6806 0.863132H19.4763C19.4543 0.750267 19.3938 0.648559 19.305 0.575436C19.2163 0.502312 19.1049 0.462326 18.9899 0.462326C18.8749 0.462326 18.7635 0.502312 18.6748 0.575436C18.586 0.648559 18.5255 0.750267 18.5035 0.863132H17.2992V0.253862C17.2992 0.186534 17.3259 0.121964 17.3736 0.0743551C17.4212 0.0267467 17.4857 0 17.5531 0H20.4268C20.4941 0 20.5587 0.0267467 20.6063 0.0743551C20.6539 0.121964 20.6806 0.186534 20.6806 0.253862V0.863132Z" fill="white"/>
<path d="M17.682 1.98927H18.4294V2.30609H17.682V1.98927Z" fill="white"/>
<path d="M15.6115 0.125921H16.4726V1.78414H15.6115V0.125921Z" fill="white"/>
<path d="M12.7419 4.338H13.276V5.29963H12.7419V4.338Z" fill="white"/>
<path d="M7.32342 4.15624H8.17842V4.78175H7.32342V4.15624Z" fill="white"/>
<path d="M18.2273 7.41786H17.7287V6.09676H18.2273V7.41786Z" fill="white"/>
<path d="M0.594039 3.55407C0.482626 3.55434 0.375849 3.59872 0.297068 3.6775C0.218286 3.75628 0.173908 3.86306 0.17364 3.97447V4.90868C0.173138 4.91748 0.173138 4.92629 0.17364 4.93509L4.11866 3.75208H5.26916V3.549L0.594039 3.55407ZM0.492494 3.42714H6.6979C6.82906 3.42714 6.95484 3.47924 7.04758 3.57198C7.14032 3.66472 7.19242 3.79051 7.19242 3.92167V5.0153C7.19242 5.14646 7.14032 5.27224 7.04758 5.36498C6.95484 5.45773 6.82906 5.50983 6.6979 5.50983H0.494523C0.363367 5.50983 0.237585 5.45773 0.144844 5.36498C0.0521024 5.27224 0 5.14646 0 5.0153V3.92167C0 3.85673 0.0127918 3.79242 0.0376439 3.73242C0.0624961 3.67242 0.0989228 3.6179 0.144844 3.57198C0.190764 3.52606 0.245276 3.48964 0.305274 3.46479C0.365273 3.43993 0.429581 3.42714 0.494523 3.42714H0.492494Z" fill="white"/>
<path d="M19.5515 1.98927H20.2988V2.30609H19.5515V1.98927Z" fill="white"/>
<path d="M10.7414 9.20708V7.04113C10.7416 6.96802 10.765 6.89687 10.8084 6.83804H11.7914C11.8348 6.89687 11.8583 6.96802 11.8584 7.04113V9.20911C11.8584 9.3004 11.8221 9.38796 11.7576 9.45252C11.693 9.51708 11.6055 9.55335 11.5142 9.55335H11.0857C11.0403 9.55335 10.9953 9.54438 10.9534 9.52695C10.9115 9.50952 10.8735 9.48399 10.8415 9.45181C10.8095 9.41963 10.7842 9.38143 10.767 9.33943C10.7499 9.29743 10.7411 9.25246 10.7414 9.20708Z" fill="white"/>
<path d="M9.28833 4.338H9.82245V5.29963H9.28833V4.338Z" fill="white"/>
<path d="M17.5531 1.91818C17.5196 1.91818 17.4865 1.91159 17.4557 1.89877C17.4248 1.88595 17.3968 1.86715 17.3732 1.84347C17.3496 1.81979 17.3309 1.79168 17.3182 1.76077C17.3055 1.72985 17.2991 1.69673 17.2992 1.66331V1.05404H18.5035C18.5255 1.1669 18.586 1.26861 18.6748 1.34173C18.7635 1.41486 18.8749 1.45485 18.9899 1.45485C19.1049 1.45485 19.2163 1.41486 19.305 1.34173C19.3938 1.26861 19.4543 1.1669 19.4763 1.05404H20.6806V1.66331C20.6808 1.69673 20.6743 1.72985 20.6616 1.76077C20.6489 1.79168 20.6302 1.81979 20.6066 1.84347C20.5831 1.86715 20.555 1.88595 20.5242 1.89877C20.4933 1.91159 20.4602 1.91818 20.4268 1.91818H17.5531Z" fill="white"/>
<path d="M19.1341 8.66584L19.3443 9.25887V9.26902L19.3595 9.28222C19.3903 9.30913 19.4245 9.332 19.4611 9.35026C19.5371 9.38827 19.6193 9.41234 19.7038 9.42134C19.7473 9.42616 19.791 9.42786 19.8348 9.42641H21.9388V9.5696H19.8409C19.7917 9.5702 19.7425 9.56783 19.6936 9.56249C19.5921 9.55189 19.4934 9.52299 19.4022 9.47719C19.3557 9.45332 19.3118 9.42474 19.2712 9.39189L19.256 9.37869L19.2356 9.35838C19.2317 9.3542 19.2279 9.34979 19.2245 9.34518L19.2184 9.32894L19.2103 9.30659L18.6264 7.65852L18.7614 7.61079L19.1341 8.66584Z" fill="white"/>
<path d="M10.1433 4.338H10.6775V5.29963H10.1433V4.338Z" fill="white"/>
</svg>
