<svg width="11" height="11" viewBox="0 0 11 11" fill="none" xmlns="http://www.w3.org/2000/svg">
<path d="M5.5 0C4.4122 0 3.34884 0.322569 2.44437 0.926917C1.5399 1.53126 0.834947 2.39025 0.418665 3.39524C0.00238306 4.40023 -0.106535 5.5061 0.105683 6.573C0.317902 7.63989 0.841726 8.6199 1.61091 9.38909C2.3801 10.1583 3.36011 10.6821 4.427 10.8943C5.4939 11.1065 6.59977 10.9976 7.60476 10.5813C8.60975 10.1651 9.46874 9.4601 10.0731 8.55563C10.6774 7.65116 11 6.5878 11 5.5C10.9983 4.04183 10.4183 2.64386 9.38723 1.61277C8.35614 0.581689 6.95817 0.00168533 5.5 0ZM8.11944 4.53692L5.0166 7.49846C4.93771 7.57352 4.83298 7.61538 4.72409 7.61538C4.61519 7.61538 4.51046 7.57352 4.43157 7.49846L2.88056 6.01769C2.79953 5.94007 2.75262 5.83346 2.75014 5.72128C2.74765 5.6091 2.7898 5.50052 2.86732 5.41939C2.94483 5.33826 3.05138 5.29122 3.16356 5.28859C3.27574 5.28596 3.38437 5.32797 3.4656 5.40539L4.72408 6.60727L7.53441 3.92462C7.61563 3.8472 7.72427 3.8052 7.83645 3.80782C7.94862 3.81045 8.05517 3.85749 8.13269 3.93862C8.2102 4.01975 8.25235 4.12833 8.24987 4.24051C8.24738 4.35269 8.20047 4.4593 8.11944 4.53692Z" fill="white" fill-opacity="0.3"/>
</svg>
