<svg width="13" height="14" viewBox="0 0 13 14" fill="none" xmlns="http://www.w3.org/2000/svg">
<path fill-rule="evenodd" clip-rule="evenodd" d="M5.96682 0.798649C6.12786 0.676459 6.32137 0.609375 6.52159 0.609375C6.72182 0.609375 6.91533 0.676459 7.07637 0.798649C7.2358 0.919614 7.35515 1.08811 7.42224 1.27964L8.53397 4.35754L11.4999 4.56916C11.9581 4.60186 12.2583 4.94845 12.3604 5.30945C12.4622 5.66923 12.3925 6.1202 12.0586 6.42575L9.76395 8.52548L10.5059 11.7343C10.6072 12.1725 10.4447 12.5869 10.1566 12.8273C9.86414 13.0714 9.42672 13.1426 9.04752 12.8785L6.52159 11.1191L4.17901 12.7508C3.76667 13.038 3.29209 12.9611 2.97322 12.6951C2.65867 12.4326 2.48052 11.9798 2.59168 11.499L3.27924 8.52548L0.984584 6.42575C0.650673 6.1202 0.581014 5.66923 0.68279 5.30945C0.784909 4.94845 1.08508 4.60186 1.54329 4.56916L4.50922 4.35754L5.62093 1.27968C5.68801 1.08814 5.80737 0.919623 5.96682 0.798649ZM6.52159 1.95566L5.48916 4.81403C5.42505 4.9943 5.31476 5.15412 5.1682 5.27306C5.02079 5.3927 4.84322 5.46552 4.65593 5.48023L4.65232 5.48052L1.80757 5.68348L4.0101 7.69891L4.01263 7.70124C4.1535 7.83179 4.2556 8.00105 4.30996 8.18799C4.36421 8.37458 4.36947 8.57357 4.32533 8.76296C4.32527 8.76321 4.32538 8.76272 4.32533 8.76296L3.63061 11.7675C3.62943 11.7726 3.62878 11.7768 3.62845 11.7803L5.99959 10.1287C5.9994 10.1289 5.99977 10.1286 5.99959 10.1287C6.1537 10.021 6.33517 9.96216 6.52159 9.96216C6.70801 9.96216 6.88895 10.0207 7.04306 10.1284C7.04288 10.1282 7.04324 10.1285 7.04306 10.1284L9.4157 11.781L8.71803 8.7637C8.71797 8.76343 8.71809 8.76397 8.71803 8.7637C8.67391 8.57433 8.67898 8.37456 8.73323 8.18799C8.78759 8.00105 8.88968 7.83179 9.03056 7.70124L9.03308 7.6989L11.2356 5.68348L8.38725 5.48025C8.19997 5.46554 8.0224 5.3927 7.87498 5.27306C7.72845 5.15414 7.61818 4.99435 7.55406 4.81412L6.52159 1.95566Z" fill="#C8DBF2"/>
</svg>
