<svg width="13" height="14" viewBox="0 0 13 14" fill="none" xmlns="http://www.w3.org/2000/svg">
<path fill-rule="evenodd" clip-rule="evenodd" d="M5.96682 0.798649C6.12786 0.676459 6.32137 0.609375 6.52159 0.609375C6.72182 0.609375 6.91533 0.676459 7.07637 0.798649C7.2358 0.919614 7.35516 1.08811 7.42225 1.27964L8.53397 4.35754L11.4999 4.56916C11.9581 4.60186 12.2583 4.94845 12.3604 5.30945C12.4622 5.66923 12.3925 6.1202 12.0586 6.42575L9.76395 8.52548L10.5059 11.7343C10.6072 12.1725 10.4447 12.5869 10.1566 12.8273C9.86414 13.0714 9.42672 13.1426 9.04752 12.8785L6.52159 11.1191L4.17902 12.7508C3.76667 13.038 3.29209 12.9611 2.97322 12.6951C2.65867 12.4326 2.48052 11.9798 2.59168 11.499L3.27924 8.52548L0.984584 6.42575C0.650673 6.1202 0.581014 5.66923 0.68279 5.30945C0.784909 4.94845 1.08508 4.60186 1.54329 4.56916L4.50922 4.35754L5.62093 1.27968C5.68801 1.08814 5.80738 0.919623 5.96682 0.798649Z" fill="#C8DBF2"/>
</svg>
